<?xml version='1.0' encoding='utf-8'?>
<svg xmlns="http://www.w3.org/2000/svg" width="281.20000000000005" height="2224.2" viewBox="-101.10000000000001 -101.10000000000001 281.20000000000005 2224.2">
  <path d="M 0.0 6.0 L 0.0 12.0 L 9.0 3.0 L 9.0 0.0 L 0.0 3.0 L 3.0 6.0 L 9.0 9.0 L 2.0 79.0 L 7.0 5.0 L 8.0 3.0 L 0.0 6.0 L 5.0 0.0 L 2.0 1.0 L 0.0 7.0 L 1.0 0.0 L 8.0 2.0 L 8.0 2.0 L 7.0 8.0 L 8.0 2.0 L 3.0 6.0 L 1.0 7.0 L 7.0 0.0 L 9.0 9.0 L 2.0 2.0 L 7.0 8.0 L 9.0 8.0 L 7.0 47.0 L 50.0 5.0 L 4.0 9.0 L 0.0 6.0 L 8.0 3.0 L 4.0 4.0 L 2.0 5.0 L 6.0 0.0 L 9.0 9.0 L 4.0 2.0 L 6.0 7.0 L 9.0 2.0 L 8.0 9.0 L 58.0 5.0 L 3.0 9.0 L 79.0 7.0 L 9.0 98.0 L 3.0 0.0 L 3.0 5.0 L 9.0 0.0 L 9.0 0.0 L 8.0 8.0 L 7.0 5.0 L 8.0 6.0 L 3.0 1.0 L 0.0 9.0 L 1.0 1.0 L 0.0 8.0 L 3.0 93.0 L 3.0 92.0 L 0.0 5.0 L 3.0 2.0 L 6.0 4.0 L 9.0 8.0 L 8.0 73.0 L 9.0 8.0 L 1.0 1.0 L 0.0 0.0 L 0.0 0.0 L 2.0 1.0 L 0.0 0.0 L 0.0 0.0 L 1.0 1.0 L 1.0 1.0 L 1.0 1.0 L 1.0 1.0 L 0.0 0.0 L 2.0 1.0 L 0.0 0.0 L 0.0 0.0 L 4.0 5.0 L 4.0 4.0 L 9.0 9.0 L 1.0 1.0 L 0.0 0.0 L 0.0 0.0 L 3.0 3.0 L 2.0 2.0 L 0.0 4.0 L 5.0 4.0 L 3.0 9.0 L 3.0 35.0 L 5.0 3.0 L 2.0 4.0 L 2.0 1.0 L 0.0 6.0 L 2.0 4.0 L 2.0 1.0 L 4.0 8.0 L 8.0 0.0 L 4.0 3.0 L 6.0 8.0 L 5.0 6.0 L 1.0 8.0 L 7.0 4.0 L 1.0 3.0 L 3.0 4.0 L 1.0 2.0 L 7.0 1.0 L 5.0 7.0 L 9.0 9.0 L 1.0 1.0 L 8.0 4.0 L 5.0 5.0 L 3.0 0.0 L 7.0 0.0 L 9.0 8.0 L 9.0 9.0 L 71.0 7.0 L 9.0 2.0 L 7.0 1.0 L 6.0 3.0 L 3.0 2.0 L 8.0 9.0 L 0.0 5.0 L 8.0 2.0 L 1.0 -0.0 L 5.0 9.0 L 2.0 1.0 L 4.0 7.0 L 2.0 2.0 L 4.0 35.0 L 6.0 82.0 L 4.0 9.0 L 7.0 5.0 L 4.0 5.0 L 1.0 8.0 L 8.0 85.0 L 2.0 14.0 L 1.0 0.0 L 55.0 7.0 L 4.0 3.0 L 3.0 5.0 L 7.0 9.0 L 6.0 9.0 L 9.0 2.0 L 5.0 0.0 L 4.0 0.0 L 4.0 8.0 L 6.0 67.0 L 6.0 4.0 L 5.0 189.0 L 7.0 32.0 L 3.0 0.0 L 1.0 5.0 L 6.0 6.0 L 8.0 4.0 L 14.0 2022.0" stroke="black" stroke-width="10.11" fill="none" />
</svg>